<?xml version="1.0" encoding="UTF-8" standalone="no" ?>
<!DOCTYPE svg PUBLIC "-//W3C//DTD SVG 1.1//EN" "http://www.w3.org/Graphics/SVG/1.1/DTD/svg11.dtd">
<svg xmlns="http://www.w3.org/2000/svg" xmlns:xlink="http://www.w3.org/1999/xlink" version="1.1" width="494.98715" height="256.00437999999997" viewBox="0.2729208020732301 0.2729211697550227 494.98715 256.00437999999997" xml:space="preserve">
<desc>Created with Fabric.js 5.3.0</desc>
<defs>
</defs>
<g transform="matrix(1 0 0 1 247.7664958021 128.2751111698)" id="DDz-GE8ANTGFN6nhR-WIi"  >
<path style="stroke: rgb(18,121,70); stroke-width: 0; stroke-dasharray: none; stroke-linecap: butt; stroke-dashoffset: 0; stroke-linejoin: miter; stroke-miterlimit: 4; fill: rgb(255,255,255); fill-rule: nonzero; opacity: 1;"  transform=" translate(-247.4935724296, -128.0021870549)" d="M 218.03998 0 C 256.50894 0 289.96135000000004 21.60981 306.91213000000005 53.34439 C 313.61949000000004 51.39069 320.71162000000004 50.34307 328.04694000000006 50.34307 C 352.47855000000004 50.34307 374.2122300000001 61.96485 388.01761000000005 79.97801 C 394.96427000000006 76.47032 402.81438 74.49414 411.12324000000007 74.49414 C 439.4759200000001 74.49414 462.4868000000001 97.50501 462.4868000000001 125.8577 C 462.4868000000001 130.14221999999998 461.9613300000001 134.30476 460.97136000000006 138.28434 C 481.45896000000005 151.79399999999998 494.98715000000004 175.01292999999998 494.98715000000004 201.37232999999998 C 494.98715000000004 243.05640999999997 457.88149000000004 256.00437999999997 416.19741000000005 256.00437999999997 C 415.87050000000005 256.00437999999997 415.5442800000001 256.00357999999994 415.21875000000006 256.00197999999995 C 415.17016000000007 256.00356999999997 415.12137000000007 256.00436999999994 415.07239000000004 256.00436999999994 L 183.24426000000005 256.00436999999994 C 183.23671000000004 256.00436999999994 183.22916000000006 256.00436999999994 183.22161000000006 256.00436999999994 C 183.21406000000005 256.00436999999994 183.20651000000007 256.00436999999994 183.19896000000006 256.00436999999994 L 94.20129000000006 256.00436999999994 C 93.98603000000006 256.00436999999994 93.77439000000005 255.98890999999995 93.56740000000006 255.95904999999993 C 92.31838000000006 255.98927999999992 91.06280000000007 256.00436999999994 89.80117000000007 256.00436999999994 C 40.23092000000007 256.00436999999994 7.105427357601002e-14 232.70861999999994 7.105427357601002e-14 183.13836999999995 C 7.105427357601002e-14 144.43619999999996 24.52385000000007 111.42705999999995 58.869300000000074 98.81318999999995 C 73.80042000000007 69.13639999999995 102.32560000000007 47.45891999999995 136.25195000000008 41.97361999999995 C 154.53453000000007 16.559209999999947 184.36520000000007 0.000009999999946330718 218.03998000000007 0.000009999999946330718 z" stroke-linecap="round" />
</g>
</svg>