<?xml version="1.0" encoding="UTF-8" standalone="no" ?>
<!DOCTYPE svg PUBLIC "-//W3C//DTD SVG 1.1//EN" "http://www.w3.org/Graphics/SVG/1.1/DTD/svg11.dtd">
<svg xmlns="http://www.w3.org/2000/svg" xmlns:xlink="http://www.w3.org/1999/xlink" version="1.1" width="494.98714" height="264.83818999999994" viewBox="0.2729257641921379 0.2729257641921663 494.98714 264.83818999999994" xml:space="preserve">
<desc>Created with Fabric.js 5.3.0</desc>
<defs>
</defs>
<g transform="matrix(1 0 0 1 247.7664957642 132.6920207642)" id="DLot-DdJoJn76L5B36Lfq"  >
<path style="stroke: rgb(218,12,63); stroke-width: 0; stroke-dasharray: none; stroke-linecap: butt; stroke-dashoffset: 0; stroke-linejoin: miter; stroke-miterlimit: 4; fill: rgb(255,255,255); fill-rule: nonzero; opacity: 1;"  transform=" translate(-247.4935724296, -132.4190948195)" d="M 218.03998 0 C 263.07856000000004 0 301.24084000000005 29.62098 314.09554 70.43166 C 351.74455 73.43858999999999 383.84398000000004 96.23263999999999 399.98072 128.40068 C 406.19953000000004 126.74194999999999 412.73339000000004 125.85768999999999 419.47252000000003 125.85768999999999 C 461.1566 125.85768999999999 494.98715000000004 159.68824 494.98715000000004 201.37232 C 494.98715000000004 243.03565 461.19028000000003 264.81648 419.53478000000007 264.83816 C 419.5314200000001 264.83818 419.5280600000001 264.83818 419.52470000000005 264.83818 L 91.81863000000004 264.83818 C 91.73881000000004 264.83818 91.66008000000004 264.83354 91.58268000000004 264.82453000000004 C 90.99023000000004 264.83361 90.39638000000004 264.83817000000005 89.80118000000004 264.83817000000005 C 40.23093000000004 264.83817000000005 0.0000100000000458067 233.25445000000005 0.0000100000000458067 183.68421000000006 C 0.0000100000000458067 142.08605000000006 28.331290000000045 107.06479000000006 66.73809000000004 96.87618000000006 C 66.24646000000004 94.02423000000006 65.99027000000004 91.09204000000007 65.99027000000004 88.10039000000006 C 65.99027000000004 59.74771000000006 89.00114000000004 36.73683000000006 117.35383000000004 36.73683000000006 C 124.37959000000005 36.73683000000006 131.07734000000005 38.14980000000006 137.17823000000004 40.70687000000006 C 155.53269000000003 16.01034000000006 184.92800000000005 -0.00000999999993922529 218.03999000000005 -0.00000999999993922529 z" stroke-linecap="round" />
</g>
</svg>