<?xml version="1.0" encoding="UTF-8" standalone="no" ?>
<!DOCTYPE svg PUBLIC "-//W3C//DTD SVG 1.1//EN" "http://www.w3.org/Graphics/SVG/1.1/DTD/svg11.dtd">
<svg xmlns="http://www.w3.org/2000/svg" xmlns:xlink="http://www.w3.org/1999/xlink" version="1.1" width="492.8787443256211" height="295.40109677129817" viewBox="0.2729228820960259 -0.000004645389708457515 492.8787443256211 295.40109677129817" xml:space="preserve">
<desc>Created with Fabric.js 5.3.0</desc>
<defs>
</defs>
<g transform="matrix(1.0909115432 0 0 1.0909115432 246.7122950449 147.7005437403)" id="YgBOHsph2Bug7sICO1eNf"  >
<path style="stroke: rgb(227,77,43); stroke-width: 0; stroke-dasharray: none; stroke-linecap: butt; stroke-dashoffset: 0; stroke-linejoin: miter; stroke-miterlimit: 4; fill: rgb(255,255,255); fill-rule: nonzero; opacity: 1;"  transform=" translate(-225.9022471179, -135.391861988)" d="M 115.92158 36.37392 C 122.87794000000001 36.37392 129.50952 37.772929999999995 135.55014 40.30475 C 153.72328 15.852179999999997 182.8282 0 215.6131 0 C 263.12769000000003 0 302.91278 33.29627 312.89314 77.81355 C 320.42383 75.26162000000001 328.4918 73.87765 336.88105 73.87765 C 372.72081000000003 73.87765 402.69695 99.13633 409.96732000000003 132.81153 C 435.31035 151.17562 451.8045 181.01397 451.8045 214.68132 C 451.8045 270.45469 398.89724 270.78373 343.12387 270.78373 C 342.50376 270.78373 341.88588 270.78369 341.27028 270.78353 C 341.25825000000003 270.78366 341.24621 270.78371999999996 341.23416000000003 270.78371999999996 L 115.95902000000004 270.78371999999996 C 115.94654000000004 270.78371999999996 115.93406000000004 270.78371999999996 115.92158000000003 270.78371999999996 C 115.90910000000004 270.78371999999996 115.89662000000004 270.78371999999996 115.88414000000003 270.78371999999996 L 88.94650000000003 270.78371999999996 C 88.93569000000002 270.78371999999996 88.92488000000003 270.78372999999993 88.91407000000002 270.78372999999993 C 88.90326000000002 270.78372999999993 88.89245000000003 270.78372999999993 88.88164000000002 270.78371999999996 L 87.64365000000002 270.78371999999996 C 87.54201000000002 270.78371999999996 87.44144000000003 270.77910999999995 87.34215000000002 270.77009 C 38.98582000000002 269.93043 1.4210854715202004e-14 230.42519 1.4210854715202004e-14 181.86966999999999 C 1.4210854715202004e-14 140.77668 27.923180000000013 106.16585999999998 65.81792000000002 95.98881999999999 C 65.32328000000001 93.14313999999999 65.06543000000002 90.21654 65.06543000000002 87.23007999999999 C 65.06543000000002 59.15748999999998 87.84899000000001 36.37392999999999 115.92158000000002 36.37392999999999 z" stroke-linecap="round" />
</g>
</svg>