<?xml version="1.0" encoding="UTF-8" standalone="no" ?>
<!DOCTYPE svg PUBLIC "-//W3C//DTD SVG 1.1//EN" "http://www.w3.org/Graphics/SVG/1.1/DTD/svg11.dtd">
<svg xmlns="http://www.w3.org/2000/svg" xmlns:xlink="http://www.w3.org/1999/xlink" version="1.1" width="500" height="500" viewBox="0 0 500 500" xml:space="preserve">
<desc>Created with Fabric.js 5.3.0</desc>
<defs>
</defs>
<g transform="matrix(1 0 0 1 250.000000912 250.000000912)" id="-x-vV5F5WQ0d7vTpjvC3q"  >
<path style="stroke: rgb(7,91,68); stroke-width: 0; stroke-dasharray: none; stroke-linecap: butt; stroke-dashoffset: 0; stroke-linejoin: miter; stroke-miterlimit: 4; fill: rgb(255,255,255); fill-rule: nonzero; opacity: 1;"  transform=" translate(-250, -250)" d="M 250 0 C 388 0 500 112 500 250 C 500 281.66925 494.10159 311.96922 483.34414 339.86053 L 464.65774 317.59094 C 471.37676 296.25338 475.00001 273.54724 475.00001 250 C 475.00001 125.8 374.20000999999996 25 250.00000999999997 25 C 125.80000999999997 25 25.000009999999975 125.8 25.000009999999975 250 C 25.000009999999975 374.2 125.80000999999997 475 250.00000999999997 475 C 276.36176 475 301.66931999999997 470.45885 325.18255999999997 462.11666 L 342.21946999999994 482.42046000000005 C 313.68075999999996 493.7634800000001 282.56425999999993 500.00000000000006 250.00000999999995 500.00000000000006 C 112.00000999999995 500.00000000000006 0.000009999999946330718 388.00000000000006 0.000009999999946330718 250.00000000000006 C 0.000009999999946330718 112.00000000000006 112.00000999999995 5.684341886080802e-14 250.00000999999995 5.684341886080802e-14 z" stroke-linecap="round" />
</g>
</svg>