<?xml version="1.0" encoding="UTF-8" standalone="no" ?>
<!DOCTYPE svg PUBLIC "-//W3C//DTD SVG 1.1//EN" "http://www.w3.org/Graphics/SVG/1.1/DTD/svg11.dtd">
<svg xmlns="http://www.w3.org/2000/svg" xmlns:xlink="http://www.w3.org/1999/xlink" version="1.1" width="913.1217331083194" height="941.667929034614" viewBox="19.35140481082692 7.41927727330318 913.1217331083194 941.667929034614" xml:space="preserve">
<desc>Created with Fabric.js 5.3.0</desc>
<defs>
</defs>
<g transform="matrix(0.3501506594 0 0 0.3501506594 121.9350907914 125.7091776427)" id="uIS6rTre9kCUL5Xp1yCBR"  >
<path style="stroke: rgb(239,133,42); stroke-width: 0; stroke-dasharray: none; stroke-linecap: butt; stroke-dashoffset: 0; stroke-linejoin: miter; stroke-miterlimit: 4; fill: rgb(255,255,255); fill-rule: nonzero; opacity: 1;"  transform=" translate(-112.5966512128, -112.608575)" d="M 225.1933 112.61177 C 224.91653 112.6097 224.63952 112.60864000000001 224.36227 112.60858 C 224.63951 112.60852 224.91653 112.60746 225.1933 112.60539 z M 112.1573 224.78971 C 112.1573 224.93225 112.15757 225.07473000000002 112.1581 225.21715 L 112.15650000000001 225.21715 C 112.15703 225.07473000000002 112.1573 224.93225 112.1573 224.78971 C 112.1573 162.87367 61.91304000000001 112.62148000000002 0 112.60858000000002 C 61.91304 112.59568000000002 112.15729 62.34349000000002 112.15729 0.42745000000002165 C 112.15729 0.28490000000002164 112.15702 0.14242000000002164 112.15649 2.1649348980190553e-14 L 112.15809 2.1649348980190553e-14 C 112.15756 0.14242000000002164 112.15729 0.28491000000002165 112.15729 0.42745000000002165 C 112.15729 62.34348000000002 162.40154 112.59568000000002 224.31458 112.60858000000002 C 162.40155000000001 112.62148000000002 112.1573 162.87368 112.1573 224.78971 z" stroke-linecap="round" />
</g>
<g transform="matrix(0.3501506594 0 0 0.3501506594 624.6744173948 136.8771547478)" id="uRiJn5ovJxGJmoGj6ROH0"  >
<path style="stroke: rgb(239,133,42); stroke-width: 0; stroke-dasharray: none; stroke-linecap: butt; stroke-dashoffset: 0; stroke-linejoin: miter; stroke-miterlimit: 4; fill: rgb(255,255,255); fill-rule: nonzero; opacity: 1;"  transform=" translate(-112.59665, -112.608575)" d="M 225.1933 112.61177 C 224.91653 112.6097 224.63952 112.60864000000001 224.36227 112.60858 C 224.63951 112.60852 224.91653 112.60746 225.1933 112.60539 z M 112.1573 224.78971 C 112.1573 224.93225 112.15757 225.07473000000002 112.1581 225.21715 L 112.15650000000001 225.21715 C 112.15703 225.07473000000002 112.1573 224.93225 112.1573 224.78971 C 112.1573 162.87367 61.91304000000001 112.62148000000002 0 112.60858000000002 C 61.91304 112.59568000000002 112.15729 62.34349000000002 112.15729 0.42745000000002165 C 112.15729 0.28490000000002164 112.15702 0.14242000000002164 112.15649 2.1649348980190553e-14 L 112.15809 2.1649348980190553e-14 C 112.15756 0.14242000000002164 112.15729 0.28491000000002165 112.15729 0.42745000000002165 C 112.15729 62.34348000000002 162.40154 112.59568000000002 224.31458 112.60858000000002 C 162.40155000000001 112.62148000000002 112.1573 162.87368 112.1573 224.78971 z" stroke-linecap="round" />
</g>
<g transform="matrix(0.3501506594 0 0 0.3501506594 814.195764188 125.7091776443)" id="wN76GHQE-QotLVpE3-3LE"  >
<path style="stroke: rgb(239,133,42); stroke-width: 0; stroke-dasharray: none; stroke-linecap: butt; stroke-dashoffset: 0; stroke-linejoin: miter; stroke-miterlimit: 4; fill: rgb(255,255,255); fill-rule: nonzero; opacity: 1;"  transform=" translate(-112.59665, -112.608575)" d="M 225.1933 112.61177 C 224.91653 112.6097 224.63952 112.60864000000001 224.36227 112.60858 C 224.63951 112.60852 224.91653 112.60746 225.1933 112.60539 z M 112.1573 224.78971 C 112.1573 224.93225 112.15757 225.07473000000002 112.1581 225.21715 L 112.15650000000001 225.21715 C 112.15703 225.07473000000002 112.1573 224.93225 112.1573 224.78971 C 112.1573 162.87367 61.91304000000001 112.62148000000002 0 112.60858000000002 C 61.91304 112.59568000000002 112.15729 62.34349000000002 112.15729 0.42745000000002165 C 112.15729 0.28490000000002164 112.15702 0.14242000000002164 112.15649 2.1649348980190553e-14 L 112.15809 2.1649348980190553e-14 C 112.15756 0.14242000000002164 112.15729 0.28491000000002165 112.15729 0.42745000000002165 C 112.15729 62.34348000000002 162.40154 112.59568000000002 224.31458 112.60858000000002 C 162.40155000000001 112.62148000000002 112.1573 162.87368 112.1573 224.78971 z" stroke-linecap="round" />
</g>
<g transform="matrix(0.3501506594 0 0 0.3501506594 376.4964943002 76.7618092216)" id="KOfrIIvxQzHxzZ3hyAAiF"  >
<path style="stroke: rgb(239,133,42); stroke-width: 0; stroke-dasharray: none; stroke-linecap: butt; stroke-dashoffset: 0; stroke-linejoin: miter; stroke-miterlimit: 4; fill: rgb(255,255,255); fill-rule: nonzero; opacity: 1;"  transform=" translate(-112.59665, -112.608575)" d="M 225.1933 112.61177 C 224.91653 112.6097 224.63952 112.60864000000001 224.36227 112.60858 C 224.63951 112.60852 224.91653 112.60746 225.1933 112.60539 z M 112.1573 224.78971 C 112.1573 224.93225 112.15757 225.07473000000002 112.1581 225.21715 L 112.15650000000001 225.21715 C 112.15703 225.07473000000002 112.1573 224.93225 112.1573 224.78971 C 112.1573 162.87367 61.91304000000001 112.62148000000002 0 112.60858000000002 C 61.91304 112.59568000000002 112.15729 62.34349000000002 112.15729 0.42745000000002165 C 112.15729 0.28490000000002164 112.15702 0.14242000000002164 112.15649 2.1649348980190553e-14 L 112.15809 2.1649348980190553e-14 C 112.15756 0.14242000000002164 112.15729 0.28491000000002165 112.15729 0.42745000000002165 C 112.15729 62.34348000000002 162.40154 112.59568000000002 224.31458 112.60858000000002 C 162.40155000000001 112.62148000000002 112.1573 162.87368 112.1573 224.78971 z" stroke-linecap="round" />
</g>
<g transform="matrix(0.3501506594 0 0 0.3501506594 64.5666697388 368.289900371)" id="vmdPJBYE3Iet822ABLUGx"  >
<path style="stroke: rgb(239,133,42); stroke-width: 0; stroke-dasharray: none; stroke-linecap: butt; stroke-dashoffset: 0; stroke-linejoin: miter; stroke-miterlimit: 4; fill: rgb(255,255,255); fill-rule: nonzero; opacity: 1;"  transform=" translate(-112.59665, -112.608575)" d="M 225.1933 112.61177 C 224.91653 112.6097 224.63952 112.60864000000001 224.36227 112.60858 C 224.63951 112.60852 224.91653 112.60746 225.1933 112.60539 z M 112.1573 224.78971 C 112.1573 224.93225 112.15757 225.07473000000002 112.1581 225.21715 L 112.15650000000001 225.21715 C 112.15703 225.07473000000002 112.1573 224.93225 112.1573 224.78971 C 112.1573 162.87367 61.91304000000001 112.62148000000002 0 112.60858000000002 C 61.91304 112.59568000000002 112.15729 62.34349000000002 112.15729 0.42745000000002165 C 112.15729 0.28490000000002164 112.15702 0.14242000000002164 112.15649 2.1649348980190553e-14 L 112.15809 2.1649348980190553e-14 C 112.15756 0.14242000000002164 112.15729 0.28491000000002165 112.15729 0.42745000000002165 C 112.15729 62.34348000000002 162.40154 112.59568000000002 224.31458 112.60858000000002 C 162.40155000000001 112.62148000000002 112.1573 162.87368 112.1573 224.78971 z" stroke-linecap="round" />
</g>
<g transform="matrix(0.3501506594 0 0 0.3501506594 58.7771960546 46.8492440636)" id="VECTdHJn-eu92XG7yiOoS"  >
<path style="stroke: rgb(239,133,42); stroke-width: 0; stroke-dasharray: none; stroke-linecap: butt; stroke-dashoffset: 0; stroke-linejoin: miter; stroke-miterlimit: 4; fill: rgb(255,255,255); fill-rule: nonzero; opacity: 1;"  transform=" translate(-112.59665, -112.608575)" d="M 225.1933 112.61177 C 224.91653 112.6097 224.63952 112.60864000000001 224.36227 112.60858 C 224.63951 112.60852 224.91653 112.60746 225.1933 112.60539 z M 112.1573 224.78971 C 112.1573 224.93225 112.15757 225.07473000000002 112.1581 225.21715 L 112.15650000000001 225.21715 C 112.15703 225.07473000000002 112.1573 224.93225 112.1573 224.78971 C 112.1573 162.87367 61.91304000000001 112.62148000000002 0 112.60858000000002 C 61.91304 112.59568000000002 112.15729 62.34349000000002 112.15729 0.42745000000002165 C 112.15729 0.28490000000002164 112.15702 0.14242000000002164 112.15649 2.1649348980190553e-14 L 112.15809 2.1649348980190553e-14 C 112.15756 0.14242000000002164 112.15729 0.28491000000002165 112.15729 0.42745000000002165 C 112.15729 62.34348000000002 162.40154 112.59568000000002 224.31458 112.60858000000002 C 162.40155000000001 112.62148000000002 112.1573 162.87368 112.1573 224.78971 z" stroke-linecap="round" />
</g>
<g transform="matrix(0.3501506594 0 0 0.3501506594 280.3480767876 835.9643610557)" id="PVLfPVO30oqqgCdvWTF73"  >
<path style="stroke: rgb(239,133,42); stroke-width: 0; stroke-dasharray: none; stroke-linecap: butt; stroke-dashoffset: 0; stroke-linejoin: miter; stroke-miterlimit: 4; fill: rgb(255,255,255); fill-rule: nonzero; opacity: 1;"  transform=" translate(-112.59665, -112.608575)" d="M 225.1933 112.61177 C 224.91653 112.6097 224.63952 112.60864000000001 224.36227 112.60858 C 224.63951 112.60852 224.91653 112.60746 225.1933 112.60539 z M 112.1573 224.78971 C 112.1573 224.93225 112.15757 225.07473000000002 112.1581 225.21715 L 112.15650000000001 225.21715 C 112.15703 225.07473000000002 112.1573 224.93225 112.1573 224.78971 C 112.1573 162.87367 61.91304000000001 112.62148000000002 0 112.60858000000002 C 61.91304 112.59568000000002 112.15729 62.34349000000002 112.15729 0.42745000000002165 C 112.15729 0.28490000000002164 112.15702 0.14242000000002164 112.15649 2.1649348980190553e-14 L 112.15809 2.1649348980190553e-14 C 112.15756 0.14242000000002164 112.15729 0.28491000000002165 112.15729 0.42745000000002165 C 112.15729 62.34348000000002 162.40154 112.59568000000002 224.31458 112.60858000000002 C 162.40155000000001 112.62148000000002 112.1573 162.87368 112.1573 224.78971 z" stroke-linecap="round" />
</g>
<g transform="matrix(0.3501506594 0 0 0.3501506594 449.4430191962 360.3142985717)" id="i25ar5weV-ge3WO2yvJVr"  >
<path style="stroke: rgb(239,133,42); stroke-width: 0; stroke-dasharray: none; stroke-linecap: butt; stroke-dashoffset: 0; stroke-linejoin: miter; stroke-miterlimit: 4; fill: rgb(255,255,255); fill-rule: nonzero; opacity: 1;"  transform=" translate(-112.59665, -112.608575)" d="M 225.1933 112.61177 C 224.91653 112.6097 224.63952 112.60864000000001 224.36227 112.60858 C 224.63951 112.60852 224.91653 112.60746 225.1933 112.60539 z M 112.1573 224.78971 C 112.1573 224.93225 112.15757 225.07473000000002 112.1581 225.21715 L 112.15650000000001 225.21715 C 112.15703 225.07473000000002 112.1573 224.93225 112.1573 224.78971 C 112.1573 162.87367 61.91304000000001 112.62148000000002 0 112.60858000000002 C 61.91304 112.59568000000002 112.15729 62.34349000000002 112.15729 0.42745000000002165 C 112.15729 0.28490000000002164 112.15702 0.14242000000002164 112.15649 2.1649348980190553e-14 L 112.15809 2.1649348980190553e-14 C 112.15756 0.14242000000002164 112.15729 0.28491000000002165 112.15729 0.42745000000002165 C 112.15729 62.34348000000002 162.40154 112.59568000000002 224.31458 112.60858000000002 C 162.40155000000001 112.62148000000002 112.1573 162.87368 112.1573 224.78971 z" stroke-linecap="round" />
</g>
<g transform="matrix(0.3501506594 0 0 0.3501506594 109.5747363741 603.4645032847)" id="TwqAIZD4HZ3slnrHDyLmF"  >
<path style="stroke: rgb(239,133,42); stroke-width: 0; stroke-dasharray: none; stroke-linecap: butt; stroke-dashoffset: 0; stroke-linejoin: miter; stroke-miterlimit: 4; fill: rgb(255,255,255); fill-rule: nonzero; opacity: 1;"  transform=" translate(-112.59665, -112.608575)" d="M 225.1933 112.61177 C 224.91653 112.6097 224.63952 112.60864000000001 224.36227 112.60858 C 224.63951 112.60852 224.91653 112.60746 225.1933 112.60539 z M 112.1573 224.78971 C 112.1573 224.93225 112.15757 225.07473000000002 112.1581 225.21715 L 112.15650000000001 225.21715 C 112.15703 225.07473000000002 112.1573 224.93225 112.1573 224.78971 C 112.1573 162.87367 61.91304000000001 112.62148000000002 0 112.60858000000002 C 61.91304 112.59568000000002 112.15729 62.34349000000002 112.15729 0.42745000000002165 C 112.15729 0.28490000000002164 112.15702 0.14242000000002164 112.15649 2.1649348980190553e-14 L 112.15809 2.1649348980190553e-14 C 112.15756 0.14242000000002164 112.15729 0.28491000000002165 112.15729 0.42745000000002165 C 112.15729 62.34348000000002 162.40154 112.59568000000002 224.31458 112.60858000000002 C 162.40155000000001 112.62148000000002 112.1573 162.87368 112.1573 224.78971 z" stroke-linecap="round" />
</g>
<g transform="matrix(0.3501506594 0 0 0.3501506594 735.3441817005 439.1742321523)" id="bZPD_8ylGt7LbYQZuEK_x"  >
<path style="stroke: rgb(239,133,42); stroke-width: 0; stroke-dasharray: none; stroke-linecap: butt; stroke-dashoffset: 0; stroke-linejoin: miter; stroke-miterlimit: 4; fill: rgb(255,255,255); fill-rule: nonzero; opacity: 1;"  transform=" translate(-112.59665, -112.608575)" d="M 225.1933 112.61177 C 224.91653 112.6097 224.63952 112.60864000000001 224.36227 112.60858 C 224.63951 112.60852 224.91653 112.60746 225.1933 112.60539 z M 112.1573 224.78971 C 112.1573 224.93225 112.15757 225.07473000000002 112.1581 225.21715 L 112.15650000000001 225.21715 C 112.15703 225.07473000000002 112.1573 224.93225 112.1573 224.78971 C 112.1573 162.87367 61.91304000000001 112.62148000000002 0 112.60858000000002 C 61.91304 112.59568000000002 112.15729 62.34349000000002 112.15729 0.42745000000002165 C 112.15729 0.28490000000002164 112.15702 0.14242000000002164 112.15649 2.1649348980190553e-14 L 112.15809 2.1649348980190553e-14 C 112.15756 0.14242000000002164 112.15729 0.28491000000002165 112.15729 0.42745000000002165 C 112.15729 62.34348000000002 162.40154 112.59568000000002 224.31458 112.60858000000002 C 162.40155000000001 112.62148000000002 112.1573 162.87368 112.1573 224.78971 z" stroke-linecap="round" />
</g>
<g transform="matrix(0.3501506594 0 0 0.3501506594 337.0707030564 314.5454545455)" id="MAL3T0RTJA4uTUE56ZvTm"  >
<path style="stroke: rgb(239,133,42); stroke-width: 0; stroke-dasharray: none; stroke-linecap: butt; stroke-dashoffset: 0; stroke-linejoin: miter; stroke-miterlimit: 4; fill: rgb(255,255,255); fill-rule: nonzero; opacity: 1;"  transform=" translate(-112.59665, -112.608575)" d="M 225.1933 112.61177 C 224.91653 112.6097 224.63952 112.60864000000001 224.36227 112.60858 C 224.63951 112.60852 224.91653 112.60746 225.1933 112.60539 z M 112.1573 224.78971 C 112.1573 224.93225 112.15757 225.07473000000002 112.1581 225.21715 L 112.15650000000001 225.21715 C 112.15703 225.07473000000002 112.1573 224.93225 112.1573 224.78971 C 112.1573 162.87367 61.91304000000001 112.62148000000002 0 112.60858000000002 C 61.91304 112.59568000000002 112.15729 62.34349000000002 112.15729 0.42745000000002165 C 112.15729 0.28490000000002164 112.15702 0.14242000000002164 112.15649 2.1649348980190553e-14 L 112.15809 2.1649348980190553e-14 C 112.15756 0.14242000000002164 112.15729 0.28491000000002165 112.15729 0.42745000000002165 C 112.15729 62.34348000000002 162.40154 112.59568000000002 224.31458 112.60858000000002 C 162.40155000000001 112.62148000000002 112.1573 162.87368 112.1573 224.78971 z" stroke-linecap="round" />
</g>
<g transform="matrix(0.3501506594 0 0 0.3501506594 695.9183904568 909.6572395176)" id="naQjiCxOhjjzm6JwSKcih"  >
<path style="stroke: rgb(239,133,42); stroke-width: 0; stroke-dasharray: none; stroke-linecap: butt; stroke-dashoffset: 0; stroke-linejoin: miter; stroke-miterlimit: 4; fill: rgb(255,255,255); fill-rule: nonzero; opacity: 1;"  transform=" translate(-112.59665, -112.608575)" d="M 225.1933 112.61177 C 224.91653 112.6097 224.63952 112.60864000000001 224.36227 112.60858 C 224.63951 112.60852 224.91653 112.60746 225.1933 112.60539 z M 112.1573 224.78971 C 112.1573 224.93225 112.15757 225.07473000000002 112.1581 225.21715 L 112.15650000000001 225.21715 C 112.15703 225.07473000000002 112.1573 224.93225 112.1573 224.78971 C 112.1573 162.87367 61.91304000000001 112.62148000000002 0 112.60858000000002 C 61.91304 112.59568000000002 112.15729 62.34349000000002 112.15729 0.42745000000002165 C 112.15729 0.28490000000002164 112.15702 0.14242000000002164 112.15649 2.1649348980190553e-14 L 112.15809 2.1649348980190553e-14 C 112.15756 0.14242000000002164 112.15729 0.28491000000002165 112.15729 0.42745000000002165 C 112.15729 62.34348000000002 162.40154 112.59568000000002 224.31458 112.60858000000002 C 162.40155000000001 112.62148000000002 112.1573 162.87368 112.1573 224.78971 z" stroke-linecap="round" />
</g>
<g transform="matrix(0.3501506594 0 0 0.3501506594 893.0473466754 320.8843317813)" id="CceeLZ7V9-s39DHPTM5yK"  >
<path style="stroke: rgb(239,133,42); stroke-width: 0; stroke-dasharray: none; stroke-linecap: butt; stroke-dashoffset: 0; stroke-linejoin: miter; stroke-miterlimit: 4; fill: rgb(255,255,255); fill-rule: nonzero; opacity: 1;"  transform=" translate(-112.59665, -112.608575)" d="M 225.1933 112.61177 C 224.91653 112.6097 224.63952 112.60864000000001 224.36227 112.60858 C 224.63951 112.60852 224.91653 112.60746 225.1933 112.60539 z M 112.1573 224.78971 C 112.1573 224.93225 112.15757 225.07473000000002 112.1581 225.21715 L 112.15650000000001 225.21715 C 112.15703 225.07473000000002 112.1573 224.93225 112.1573 224.78971 C 112.1573 162.87367 61.91304000000001 112.62148000000002 0 112.60858000000002 C 61.91304 112.59568000000002 112.15729 62.34349000000002 112.15729 0.42745000000002165 C 112.15729 0.28490000000002164 112.15702 0.14242000000002164 112.15649 2.1649348980190553e-14 L 112.15809 2.1649348980190553e-14 C 112.15756 0.14242000000002164 112.15729 0.28491000000002165 112.15729 0.42745000000002165 C 112.15729 62.34348000000002 162.40154 112.59568000000002 224.31458 112.60858000000002 C 162.40155000000001 112.62148000000002 112.1573 162.87368 112.1573 224.78971 z" stroke-linecap="round" />
</g>
<g transform="matrix(0.3501506594 0 0 0.3501506594 82.5092995476 909.6572395176)" id="ZMQBCTj8RbkNJ8edvaivv"  >
<path style="stroke: rgb(239,133,42); stroke-width: 0; stroke-dasharray: none; stroke-linecap: butt; stroke-dashoffset: 0; stroke-linejoin: miter; stroke-miterlimit: 4; fill: rgb(255,255,255); fill-rule: nonzero; opacity: 1;"  transform=" translate(-112.59665, -112.608575)" d="M 225.1933 112.61177 C 224.91653 112.6097 224.63952 112.60864000000001 224.36227 112.60858 C 224.63951 112.60852 224.91653 112.60746 225.1933 112.60539 z M 112.1573 224.78971 C 112.1573 224.93225 112.15757 225.07473000000002 112.1581 225.21715 L 112.15650000000001 225.21715 C 112.15703 225.07473000000002 112.1573 224.93225 112.1573 224.78971 C 112.1573 162.87367 61.91304000000001 112.62148000000002 0 112.60858000000002 C 61.91304 112.59568000000002 112.15729 62.34349000000002 112.15729 0.42745000000002165 C 112.15729 0.28490000000002164 112.15702 0.14242000000002164 112.15649 2.1649348980190553e-14 L 112.15809 2.1649348980190553e-14 C 112.15756 0.14242000000002164 112.15729 0.28491000000002165 112.15729 0.42745000000002165 C 112.15729 62.34348000000002 162.40154 112.59568000000002 224.31458 112.60858000000002 C 162.40155000000001 112.62148000000002 112.1573 162.87368 112.1573 224.78971 z" stroke-linecap="round" />
</g>
<g transform="matrix(0.3501506594 0 0 0.3501506594 297.6449118127 545.30632409)" id="XzCy0S3wmMHC-KbCUc3dR"  >
<path style="stroke: rgb(239,133,42); stroke-width: 0; stroke-dasharray: none; stroke-linecap: butt; stroke-dashoffset: 0; stroke-linejoin: miter; stroke-miterlimit: 4; fill: rgb(255,255,255); fill-rule: nonzero; opacity: 1;"  transform=" translate(-112.59665, -112.608575)" d="M 225.1933 112.61177 C 224.91653 112.6097 224.63952 112.60864000000001 224.36227 112.60858 C 224.63951 112.60852 224.91653 112.60746 225.1933 112.60539 z M 112.1573 224.78971 C 112.1573 224.93225 112.15757 225.07473000000002 112.1581 225.21715 L 112.15650000000001 225.21715 C 112.15703 225.07473000000002 112.1573 224.93225 112.1573 224.78971 C 112.1573 162.87367 61.91304000000001 112.62148000000002 0 112.60858000000002 C 61.91304 112.59568000000002 112.15729 62.34349000000002 112.15729 0.42745000000002165 C 112.15729 0.28490000000002164 112.15702 0.14242000000002164 112.15649 2.1649348980190553e-14 L 112.15809 2.1649348980190553e-14 C 112.15756 0.14242000000002164 112.15729 0.28491000000002165 112.15729 0.42745000000002165 C 112.15729 62.34348000000002 162.40154 112.59568000000002 224.31458 112.60858000000002 C 162.40155000000001 112.62148000000002 112.1573 162.87368 112.1573 224.78971 z" stroke-linecap="round" />
</g>
<g transform="matrix(0.3501506594 0 0 0.3501506594 481.2571676967 721.7544036557)" id="qyHwkGjqt3uOo2ksG5xQ8"  >
<path style="stroke: rgb(239,133,42); stroke-width: 0; stroke-dasharray: none; stroke-linecap: butt; stroke-dashoffset: 0; stroke-linejoin: miter; stroke-miterlimit: 4; fill: rgb(255,255,255); fill-rule: nonzero; opacity: 1;"  transform=" translate(-112.59665, -112.608575)" d="M 225.1933 112.61177 C 224.91653 112.6097 224.63952 112.60864000000001 224.36227 112.60858 C 224.63951 112.60852 224.91653 112.60746 225.1933 112.60539 z M 112.1573 224.78971 C 112.1573 224.93225 112.15757 225.07473000000002 112.1581 225.21715 L 112.15650000000001 225.21715 C 112.15703 225.07473000000002 112.1573 224.93225 112.1573 224.78971 C 112.1573 162.87367 61.91304000000001 112.62148000000002 0 112.60858000000002 C 61.91304 112.59568000000002 112.15729 62.34349000000002 112.15729 0.42745000000002165 C 112.15729 0.28490000000002164 112.15702 0.14242000000002164 112.15649 2.1649348980190553e-14 L 112.15809 2.1649348980190553e-14 C 112.15756 0.14242000000002164 112.15729 0.28491000000002165 112.15729 0.42745000000002165 C 112.15729 62.34348000000002 162.40154 112.59568000000002 224.31458 112.60858000000002 C 162.40155000000001 112.62148000000002 112.1573 162.87368 112.1573 224.78971 z" stroke-linecap="round" />
</g>
<g transform="matrix(0.3501506594 0 0 0.3501506594 853.6215554317 786.2998582012)" id="0C7N8XUkomtgzAcIRBzHH"  >
<path style="stroke: rgb(239,133,42); stroke-width: 0; stroke-dasharray: none; stroke-linecap: butt; stroke-dashoffset: 0; stroke-linejoin: miter; stroke-miterlimit: 4; fill: rgb(255,255,255); fill-rule: nonzero; opacity: 1;"  transform=" translate(-112.59665, -112.608575)" d="M 225.1933 112.61177 C 224.91653 112.6097 224.63952 112.60864000000001 224.36227 112.60858 C 224.63951 112.60852 224.91653 112.60746 225.1933 112.60539 z M 112.1573 224.78971 C 112.1573 224.93225 112.15757 225.07473000000002 112.1581 225.21715 L 112.15650000000001 225.21715 C 112.15703 225.07473000000002 112.1573 224.93225 112.1573 224.78971 C 112.1573 162.87367 61.91304000000001 112.62148000000002 0 112.60858000000002 C 61.91304 112.59568000000002 112.15729 62.34349000000002 112.15729 0.42745000000002165 C 112.15729 0.28490000000002164 112.15702 0.14242000000002164 112.15649 2.1649348980190553e-14 L 112.15809 2.1649348980190553e-14 C 112.15756 0.14242000000002164 112.15729 0.28491000000002165 112.15729 0.42745000000002165 C 112.15729 62.34348000000002 162.40154 112.59568000000002 224.31458 112.60858000000002 C 162.40155000000001 112.62148000000002 112.1573 162.87368 112.1573 224.78971 z" stroke-linecap="round" />
</g>
<g transform="matrix(0.3501506594 0 0 0.3501506594 686.7157464689 584.7362908803)" id="qMylTnR1qy95T2H3g1vAC"  >
<path style="stroke: rgb(239,133,42); stroke-width: 0; stroke-dasharray: none; stroke-linecap: butt; stroke-dashoffset: 0; stroke-linejoin: miter; stroke-miterlimit: 4; fill: rgb(255,255,255); fill-rule: nonzero; opacity: 1;"  transform=" translate(-112.59665, -112.608575)" d="M 225.1933 112.61177 C 224.91653 112.6097 224.63952 112.60864000000001 224.36227 112.60858 C 224.63951 112.60852 224.91653 112.60746 225.1933 112.60539 z M 112.1573 224.78971 C 112.1573 224.93225 112.15757 225.07473000000002 112.1581 225.21715 L 112.15650000000001 225.21715 C 112.15703 225.07473000000002 112.1573 224.93225 112.1573 224.78971 C 112.1573 162.87367 61.91304000000001 112.62148000000002 0 112.60858000000002 C 61.91304 112.59568000000002 112.15729 62.34349000000002 112.15729 0.42745000000002165 C 112.15729 0.28490000000002164 112.15702 0.14242000000002164 112.15649 2.1649348980190553e-14 L 112.15809 2.1649348980190553e-14 C 112.15756 0.14242000000002164 112.15729 0.28491000000002165 112.15729 0.42745000000002165 C 112.15729 62.34348000000002 162.40154 112.59568000000002 224.31458 112.60858000000002 C 162.40155000000001 112.62148000000002 112.1573 162.87368 112.1573 224.78971 z" stroke-linecap="round" />
</g>
<g transform="matrix(0.3501506594 0 0 0.3501506594 893.0473466754 642.894470075)" id="8cfTQ4vtIQGY3MLj0a3Hv"  >
<path style="stroke: rgb(239,133,42); stroke-width: 0; stroke-dasharray: none; stroke-linecap: butt; stroke-dashoffset: 0; stroke-linejoin: miter; stroke-miterlimit: 4; fill: rgb(255,255,255); fill-rule: nonzero; opacity: 1;"  transform=" translate(-112.59665, -112.608575)" d="M 225.1933 112.61177 C 224.91653 112.6097 224.63952 112.60864000000001 224.36227 112.60858 C 224.63951 112.60852 224.91653 112.60746 225.1933 112.60539 z M 112.1573 224.78971 C 112.1573 224.93225 112.15757 225.07473000000002 112.1581 225.21715 L 112.15650000000001 225.21715 C 112.15703 225.07473000000002 112.1573 224.93225 112.1573 224.78971 C 112.1573 162.87367 61.91304000000001 112.62148000000002 0 112.60858000000002 C 61.91304 112.59568000000002 112.15729 62.34349000000002 112.15729 0.42745000000002165 C 112.15729 0.28490000000002164 112.15702 0.14242000000002164 112.15649 2.1649348980190553e-14 L 112.15809 2.1649348980190553e-14 C 112.15756 0.14242000000002164 112.15729 0.28491000000002165 112.15729 0.42745000000002165 C 112.15729 62.34348000000002 162.40154 112.59568000000002 224.31458 112.60858000000002 C 162.40155000000001 112.62148000000002 112.1573 162.87368 112.1573 224.78971 z" stroke-linecap="round" />
</g>
</svg>